<svg width="48" height="48" viewBox="0 0 48 48" fill="none" xmlns="http://www.w3.org/2000/svg">
<path d="M8 38V20C8 19.3667 8.142 18.7667 8.426 18.2C8.71 17.6333 9.10133 17.1667 9.6 16.8L21.6 7.8C22.3 7.26667 23.1 7 24 7C24.9 7 25.7 7.26667 26.4 7.8L38.4 16.8C38.9 17.1667 39.292 17.6333 39.576 18.2C39.86 18.7667 40.0013 19.3667 40 20V38C40 39.1 39.608 40.042 38.824 40.826C38.04 41.61 37.0987 42.0013 36 42H30C29.4333 42 28.9587 41.808 28.576 41.424C28.1933 41.04 28.0013 40.5653 28 40V30C28 29.4333 27.808 28.9587 27.424 28.576C27.04 28.1933 26.5653 28.0013 26 28H22C21.4333 28 20.9587 28.192 20.576 28.576C20.1933 28.96 20.0013 29.4347 20 30V40C20 40.5667 19.808 41.042 19.424 41.426C19.04 41.81 18.5653 42.0013 18 42H12C10.9 42 9.95867 41.6087 9.176 40.826C8.39333 40.0433 8.00133 39.1013 8 38Z" fill="#0D99FF"/>
</svg>
